<svg width="80" height="72" viewBox="0 0 80 72" fill="none" xmlns="http://www.w3.org/2000/svg">
<g clip-path="url(#clip0_125_1119)">
<path d="M66.4754 14.0108H13.2583V71.1274H66.4754V14.0108Z" fill="url(#paint0_linear_125_1119)"/>
<path d="M13.0381 14.0108C13.1023 14.0108 13.1665 14.0383 13.2583 14.0658C13.2583 33.068 13.2583 52.0702 13.2583 71.0999C9.13856 71.421 5.6611 70.3842 2.89931 67.7234C0.944961 65.8332 -0.000101981 63.6128 -0.000101981 61.0987C-0.000101981 52.1986 -0.000101981 43.3077 -0.000101981 34.4076C-0.000101981 31.0127 -0.00927734 27.6178 -0.00927734 24.223C-0.00927734 20.1216 2.20199 17.1396 6.26667 15.121C8.35865 14.0934 10.68 13.9374 13.0381 14.0108Z" fill="url(#paint1_linear_125_1119)"/>
<path d="M57.1808 14.0016C59.5573 14.0016 59.7958 14.0016 62.1631 14.0016C62.1631 33.068 62.1631 52.0702 62.1631 71.1091C46.0053 71.1091 33.7837 71.1091 17.5708 71.1091C17.5708 52.0794 17.5708 33.0772 17.5708 14.02C19.938 14.02 20.4519 14.02 22.865 14.02C22.865 13.7814 22.865 13.5979 22.865 13.4236C22.865 11.3775 22.8742 9.32217 22.8558 7.27607C22.8375 5.84471 23.2228 4.59686 24.3422 3.62427C25.1313 2.94529 26.0397 2.59663 27.0673 2.59663C30.2512 2.58746 33.4258 2.58746 36.6097 2.58746C41.9589 2.58746 47.3173 2.59663 52.6666 2.58746C54.0704 2.58746 55.2357 3.04622 56.1532 4.11057C56.8872 4.96387 57.1625 5.96399 57.1625 7.08338C57.1533 9.23959 57.1625 11.3958 57.1625 13.552C57.1533 13.6713 57.1625 13.8089 57.1808 14.0016ZM28.6088 14.0016C28.829 14.0016 28.9941 14.0016 29.1593 14.0016C31.6917 14.0016 34.2333 14.0016 36.7657 14.0016C41.5002 14.0016 46.2438 14.0016 50.9783 14.0108C51.3545 14.0108 51.4371 13.8915 51.4371 13.5337C51.4187 11.928 51.4371 10.3223 51.4371 8.7166C51.4371 8.58814 51.4187 8.45969 51.4004 8.32206C43.7848 8.32206 36.2151 8.32206 28.6088 8.32206C28.6088 10.2122 28.6088 12.0656 28.6088 14.0016Z" fill="white"/>
<mask id="mask0_125_1119" style="mask-type:alpha" maskUnits="userSpaceOnUse" x="17" y="2" width="46" height="70">
<path d="M57.1808 14.0016C59.5573 14.0016 59.7958 14.0016 62.1631 14.0016C62.1631 33.068 62.1631 52.0702 62.1631 71.1091C46.0053 71.1091 33.7837 71.1091 17.5708 71.1091C17.5708 52.0794 17.5708 33.0772 17.5708 14.02C19.938 14.02 20.4519 14.02 22.865 14.02C22.865 13.7814 22.865 13.5979 22.865 13.4236C22.865 11.3775 22.8742 9.32218 22.8558 7.27607C22.8375 5.84472 23.2228 4.59687 24.3422 3.62428C25.1313 2.9453 26.0397 2.59664 27.0673 2.59664C30.2512 2.58746 33.4258 2.58746 36.6097 2.58746C41.9589 2.58746 47.3173 2.59664 52.6666 2.58746C54.0704 2.58746 55.2357 3.04623 56.1532 4.11057C56.8872 4.96388 57.1625 5.964 57.1625 7.08339C57.1533 9.2396 57.1625 11.3958 57.1625 13.552C57.1533 13.6713 57.1625 13.8089 57.1808 14.0016ZM28.6088 14.0016C28.829 14.0016 28.9941 14.0016 29.1593 14.0016C31.6917 14.0016 34.2333 14.0016 36.7657 14.0016C41.5002 14.0016 46.2438 14.0016 50.9783 14.0108C51.3545 14.0108 51.4371 13.8915 51.4371 13.5337C51.4187 11.928 51.4371 10.3223 51.4371 8.71661C51.4371 8.58815 51.4187 8.45969 51.4004 8.32206C43.7848 8.32206 36.2151 8.32206 28.6088 8.32206C28.6088 10.2122 28.6088 12.0656 28.6088 14.0016Z" fill="#F7F9FC"/>
</mask>
<g mask="url(#mask0_125_1119)">
<path d="M58.096 0H21V14.02H58.096V0Z" fill="url(#paint2_linear_125_1119)"/>
</g>
<path d="M80 24.0762C80 20.2959 77.9355 17.4791 74.2654 15.433C72.0082 14.1759 69.4483 13.9374 66.8241 13.9924C66.4204 14.0016 66.4755 14.2126 66.4755 14.4328C66.4755 21.0391 66.4755 27.6362 66.4755 34.2425C66.4755 45.8493 66.4755 57.447 66.4663 69.0538C66.4663 69.7236 66.4663 70.3934 66.4663 71.1183C68.1179 71.1733 69.6869 71.1825 71.2283 70.8155C76.4399 69.586 79.9908 65.7048 79.9908 61.1263C80.0092 48.7854 80 36.4262 80 24.0762Z" fill="url(#paint3_linear_125_1119)"/>
<path d="M44.216 46.7852C44.216 47.9688 44.216 49.0882 44.216 50.2168C44.216 51.4921 44.216 52.7675 44.216 54.0337C44.216 54.7953 43.8306 55.199 43.0782 55.199C41.0046 55.2082 38.931 55.2082 36.8573 55.199C36.1692 55.199 35.7838 54.7677 35.7838 54.0429C35.7838 51.7674 35.7838 49.4919 35.7838 47.2164C35.7838 47.088 35.7838 46.9503 35.7838 46.7852C35.6095 46.7852 35.481 46.7852 35.3434 46.7852C33.1046 46.7852 30.8567 46.7852 28.6179 46.7852C27.7279 46.7852 27.3608 46.4273 27.3608 45.5373C27.3608 43.5646 27.3608 41.5919 27.3608 39.6192C27.3608 38.72 27.7187 38.3622 28.6087 38.3622C30.8383 38.3622 33.0679 38.3622 35.2975 38.3622C35.4443 38.3622 35.582 38.3622 35.7746 38.3622C35.7746 38.2154 35.7746 38.0961 35.7746 37.9768C35.7746 35.7013 35.7746 33.4258 35.7746 31.1504C35.7746 30.3062 36.1508 29.9392 36.995 29.9392C38.9677 29.9392 40.9404 29.9392 42.9131 29.9392C43.8398 29.9392 44.1976 30.2879 44.1976 31.2329C44.2068 33.4901 44.1976 35.738 44.1976 37.9952C44.1976 38.1053 44.1976 38.2154 44.1976 38.3714C44.3444 38.3714 44.4729 38.3714 44.5922 38.3714C46.8677 38.3714 49.1432 38.3714 51.4186 38.3805C52.2536 38.3805 52.6114 38.7476 52.6114 39.5825C52.6114 41.5644 52.6114 43.5463 52.6114 45.5282C52.6114 46.4365 52.2628 46.7852 51.3728 46.7852C49.1065 46.7852 46.8401 46.7852 44.583 46.7944C44.4912 46.7852 44.3811 46.7852 44.216 46.7852Z" fill="url(#paint4_linear_125_1119)"/>
</g>
<defs>
<linearGradient id="paint0_linear_125_1119" x1="13.2596" y1="42.5657" x2="66.4729" y2="42.5657" gradientUnits="userSpaceOnUse">
<stop stop-color="#B0F4FF"/>
<stop offset="1" stop-color="#69DCFC"/>
</linearGradient>
<linearGradient id="paint1_linear_125_1119" x1="-0.00010198" y1="42.5747" x2="13.2596" y2="42.5747" gradientUnits="userSpaceOnUse">
<stop stop-color="#6CBCFC"/>
<stop offset="1" stop-color="#458DFC"/>
</linearGradient>
<linearGradient id="paint2_linear_125_1119" x1="20.9962" y1="7.00849" x2="58.0944" y2="7.00849" gradientUnits="userSpaceOnUse">
<stop stop-color="#6CBCFC"/>
<stop offset="1" stop-color="#458DFC"/>
</linearGradient>
<linearGradient id="paint3_linear_125_1119" x1="66.4686" y1="42.569" x2="80.0007" y2="42.569" gradientUnits="userSpaceOnUse">
<stop stop-color="#6CBCFC"/>
<stop offset="1" stop-color="#458DFC"/>
</linearGradient>
<linearGradient id="paint4_linear_125_1119" x1="27.3665" y1="42.5783" x2="52.6298" y2="42.5783" gradientUnits="userSpaceOnUse">
<stop stop-color="#6CBCFC"/>
<stop offset="1" stop-color="#458DFC"/>
</linearGradient>
<clipPath id="clip0_125_1119">
<rect width="80" height="71.1549" fill="white"/>
</clipPath>
</defs>
</svg>
