<svg width="214" height="41" viewBox="0 0 50 41" fill="none" xmlns="http://www.w3.org/2000/svg">
<circle cx="20.5" cy="20.5" r="20.5" fill="#458FF6"/>
<path d="M29.238 30H25.702L23.336 23.838C23.128 23.266 22.8073 22.8673 22.374 22.642C21.9407 22.4167 21.3773 22.304 20.684 22.304H17.33V30H14.002V11.488H21.932C24.0293 11.488 25.624 11.9473 26.716 12.866C27.808 13.7847 28.354 15.102 28.354 16.818C28.354 18.0487 28.0247 19.0973 27.366 19.964C26.7247 20.8133 25.806 21.42 24.61 21.784C25.702 22.0093 26.4907 22.772 26.976 24.072L29.238 30ZM21.464 19.704C22.7293 19.704 23.6653 19.47 24.272 19.002C24.8787 18.534 25.182 17.8233 25.182 16.87C25.182 15.934 24.8787 15.2407 24.272 14.79C23.6827 14.322 22.7467 14.088 21.464 14.088H17.278V19.704H21.464Z" fill="white"/>
</svg>
